# xmcd
#
# Track frame offsets:
# 150
# 20382
# 32667
# 46660
# 61227
# 70575
# 83800
# 99960
# 120532
# 138542
# 150510
# 165077
#
# Disc length: 2463 seconds
#
#
# Revision: 0
# Processed by: cddbd v1.5.2PL0 Copyright (c) Steve Scherf et al.
# Submitted via: FreeRIP 2.944 
#
DISCID=81099d0c
DTITLE=김영동 - Amazon
DYEAR=2001
DGENRE=Folk
TTITLE0=아마존
TTITLE1=풍요의 강
TTITLE2=우르밤바 계곡
TTITLE3=먼길
TTITLE4=태양의 음악
TTITLE5=인디오의 성당
TTITLE6=파괴되는 원시림
TTITLE7=방황
TTITLE8=인디오의 십자가
TTITLE9=삐삭시랑 인디오
TTITLE10=우름밤바 계곡2
TTITLE11=아마존
EXTD=
EXTT0=
EXTT1=
EXTT2=
EXTT3=
EXTT4=
EXTT5=
EXTT6=
EXTT7=
EXTT8=
EXTT9=
EXTT10=
EXTT11=
PLAYORDER=
